HIERARCHY
ROOT Hips
{
	OFFSET 0.00000 0.00000 0.00000
	CHANNELS 6 Xposition Yposition Zposition Zrotation Yrotation Xrotation 
	JOINT LHipJoint
	{
		OFFSET 0 0 0
		CHANNELS 3 Zrotation Yrotation Xrotation
		JOINT LeftHip
		{
			OFFSET 1.30186 -1.90722 0.65024
			CHANNELS 3 Zrotation Yrotation Xrotation
			JOINT LeftKnee
			{
				OFFSET 2.56413 -7.04489 0.00000
				CHANNELS 3 Zrotation Yrotation Xrotation
				JOINT LeftAnkle
				{
					OFFSET 2.79321 -7.67428 0.00000
					CHANNELS 3 Zrotation Yrotation Xrotation
					JOINT LeftToe
					{
						OFFSET 0.15723 -0.43198 2.08537
						CHANNELS 3 Zrotation Yrotation Xrotation
						End Site
						{
							OFFSET 0.00000 -0.00000 1.07411
						}
					}
				}
			}
		}
	}
	JOINT RHipJoint
	{
		OFFSET 0 0 0
		CHANNELS 3 Zrotation Yrotation Xrotation
		JOINT RightHip
		{
			OFFSET -1.28627 -1.90723 0.65024
			CHANNELS 3 Zrotation Yrotation Xrotation
			JOINT RightKnee
			{
				OFFSET -2.56567 -7.04913 0.00000
				CHANNELS 3 Zrotation Yrotation Xrotation
				JOINT RightAnkle
				{
					OFFSET -2.75597 -7.57198 0.00000
					CHANNELS 3 Zrotation Yrotation Xrotation
					JOINT RightToe
					{
						OFFSET -0.17500 -0.48081 2.22901
						CHANNELS 3 Zrotation Yrotation Xrotation
						End Site
						{
							OFFSET -0.00000 -0.00000 1.14762
						}
					}
				}
			}
		}
	}
	JOINT lowerback
	{
		OFFSET 0 0 0
		CHANNELS 3 Zrotation Yrotation Xrotation
		JOINT Chest
		{
			OFFSET -0.04522 2.07467 -0.16566
			CHANNELS 3 Zrotation Yrotation Xrotation
			JOINT Chest2
			{
				OFFSET -0.01178 2.08825 -0.05393
				CHANNELS 3 Zrotation Yrotation Xrotation
				JOINT lowerneck
				{
					OFFSET 0 0 0
					CHANNELS 3 Zrotation Yrotation Xrotation
					JOINT Neck
					{
						OFFSET -0.05182 1.80489 0.16014
						CHANNELS 3 Zrotation Yrotation Xrotation
						JOINT Head
						{
							OFFSET 0.14739 1.78840 -0.33342
							CHANNELS 3 Zrotation Yrotation Xrotation
							End Site
							{
								OFFSET 0.04364 1.83899 -0.13460
							}
						}
					}
				}
				JOINT LeftCollar
				{
					OFFSET 0 0 0
					CHANNELS 3 Zrotation Yrotation Xrotation
					JOINT LeftShoulder
					{
						OFFSET 3.01264 1.29090 -0.06579
CHANNELS 3 Zrotation Xrotation Yrotation
						JOINT LeftElbow
						{
OFFSET 0 -5.556800 0.000000
CHANNELS 3 Zrotation Xrotation Yrotation
							JOINT LeftWrist
							{
OFFSET 0 -3.639790 -0.000000
CHANNELS 3 Zrotation Xrotation Yrotation
								JOINT lhand
								{
									OFFSET 0 0 0
CHANNELS 3 Zrotation Xrotation Yrotation
									JOINT LFingers
									{
OFFSET 0 -0.569420 -0.000000
CHANNELS 3 Zrotation Xrotation Yrotation
										End Site
										{
OFFSET 0 -0.459080 -0.000000
										}
									}
								}
								JOINT LThumb
								{
OFFSET 0 0.000000 0.000000
CHANNELS 3 Zrotation Xrotation Yrotation
									End Site
									{
OFFSET 0 -0.466090 0.466090
									}
								}
							}
						}
					}
				}
				JOINT RightCollar
				{
					OFFSET 0 0 0
					CHANNELS 3 Zrotation Yrotation Xrotation
					JOINT RightShoulder
					{
						OFFSET -3.15796 1.37283 -0.36748
CHANNELS 3 Zrotation Xrotation Yrotation
						JOINT RightElbow
						{
OFFSET 0 -5.343390 0.000000
CHANNELS 3 Zrotation Xrotation Yrotation
							JOINT RightWrist
							{
OFFSET 0 -3.651010 -0.000000
CHANNELS 3 Zrotation Xrotation Yrotation
								JOINT rhand
								{
									OFFSET 0 0 0
CHANNELS 3 Zrotation Xrotation Yrotation
									JOINT RFingers
									{
OFFSET 0 -0.694250 -0.000000
CHANNELS 3 Zrotation Xrotation Yrotation
										End Site
										{
OFFSET 0 -0.559720 -0.000000
										}
									}
								}
								JOINT RThumb
								{
OFFSET 0 0.000000 0.000000
CHANNELS 3 Zrotation Xrotation Yrotation
									End Site
									{
OFFSET 0 -0.568270 0.568270
									}
								}
							}
						}
					}
				}
			}
		}
	}
}
MOTION
Frames: 4
Frame Time: 0.008333333333333333
18.518471 18.433742 2.213429 145.880184 -82.068063 -139.277795 0.000000 0.000000 0.000000 -24.554512 6.725915 -17.758091 2.377331 9.609642 27.722979 2.197451 -0.495028 -27.929857 0.001246 -0.224680 -0.617234 0.000000 0.000000 0.000000 10.751350 12.882558 -11.906039 -2.581364 -9.984290 28.926002 -0.549231 -8.465419 -19.558592 -0.004088 0.370729 -1.018651 -6.349518 -2.160426 3.000228 0.310258 -3.063627 1.647952 3.947466 -1.594261 0.369393 -8.106003 -8.327057 -6.281018 5.936146 -11.144955 10.571750 2.380931 -5.487397 4.990412 0.000000 0.000000 0.000000 5.607164 25.127276 14.947100 25.171216 -36.378462 8.391261 11.369920 -22.180966 -26.694681 0.000000 0.000000 0.000000 -7.125000 0.000000 0.000000 -20.180894 55.971371 5.593346 0.000000 0.000000 0.000000 -8.924933 20.953098 -24.815999 -58.616233 -55.929783 -33.192264 7.071662 -46.197047 -22.597884 0.000000 0.000000 0.000000 7.125000 0.000000 0.000000 22.146904 8.470292 20.263482
18.576773 18.393802 2.240897 156.319306 -80.508515 -149.781558 0.000000 0.000000 0.000000 -23.775991 8.129817 -20.048267 2.958895 10.626292 31.031698 2.189063 -1.895184 -27.490180 0.057491 1.301419 3.582231 0.000000 0.000000 0.000000 10.842006 12.836813 -12.204419 -2.494136 -9.827293 28.419234 -0.757677 -5.180687 -19.139188 -0.015712 -0.804713 2.211659 -5.727799 -2.011849 3.392277 0.283850 -2.874449 1.820241 3.582188 -1.497464 0.271779 -7.943809 -8.198726 -7.104822 6.044723 -10.954618 10.881360 2.365797 -5.362965 5.207500 0.000000 0.000000 0.000000 4.748798 23.999241 12.785509 25.081035 -36.286663 8.337828 12.364107 -18.625576 -26.193508 0.000000 0.000000 0.000000 -7.125000 0.000000 0.000000 -18.879771 55.696782 5.085492 0.000000 0.000000 0.000000 -8.220105 19.827563 -22.927156 -57.974004 -55.745369 -32.660869 5.901408 -45.565321 -24.170714 0.000000 0.000000 0.000000 7.125000 0.000000 0.000000 21.350986 6.977076 20.084341
18.624785 18.361474 2.308525 161.555344 -78.772184 -155.542811 0.000000 0.000000 0.000000 -23.137990 8.635326 -21.691029 3.745477 11.810311 35.068798 1.921005 -1.907640 -25.693541 0.062145 -1.424678 -3.921298 0.000000 0.000000 0.000000 10.582989 11.737445 -12.610896 -2.460546 -9.765809 28.221604 -0.771597 -2.469970 -17.668840 -0.019995 0.856746 -2.355063 -5.245882 -1.844530 4.288849 0.139301 -2.695226 1.943282 3.193647 -1.397534 -0.151577 -7.468318 -8.160661 -7.026964 5.917132 -10.903830 10.250016 2.273425 -5.329043 4.961815 0.000000 0.000000 0.000000 4.347877 23.190401 9.733514 25.713724 -36.924153 8.715303 16.032689 -14.138205 -25.623792 0.000000 0.000000 0.000000 -7.125000 0.000000 0.000000 -14.839944 55.880146 4.023290 0.000000 0.000000 0.000000 -8.024824 19.238817 -20.096439 -57.454512 -55.592439 -32.231903 1.570366 -46.977416 -24.874642 0.000000 0.000000 0.000000 7.125000 0.000000 0.000000 18.803707 6.155472 17.689131
18.675092 18.310985 2.369916 170.686479 -76.740839 -165.228519 0.000000 0.000000 0.000000 -20.627455 9.093499 -23.281104 4.779672 13.128821 39.856918 1.600950 -4.726486 -22.858804 0.200404 -2.783355 -7.682388 0.000000 0.000000 0.000000 11.849419 12.316210 -12.248940 -2.400676 -9.655072 27.866721 -0.746621 -1.228498 -16.815852 -0.068794 1.661163 -4.570886 -4.234930 -1.410389 5.020354 0.362544 -2.114166 2.265000 2.854260 -1.108130 -0.313731 -7.308514 -8.106394 -7.128769 6.274661 -10.869835 10.010798 2.361034 -5.285827 4.913976 0.000000 0.000000 0.000000 4.008251 21.782546 6.070791 26.830568 -38.016443 9.394835 18.335760 -11.684934 -24.713142 0.000000 0.000000 0.000000 -7.125000 0.000000 0.000000 -12.018491 55.441385 3.112071 0.000000 0.000000 0.000000 -7.720936 18.227220 -17.382122 -56.575452 -55.326119 -31.507703 -2.134690 -47.510026 -23.542599 0.000000 0.000000 0.000000 7.125000 0.000000 0.000000 16.658749 7.208541 15.104438
